<svg width="32" height="32" viewBox="0 0 32 32" fill="none" xmlns="http://www.w3.org/2000/svg">
<rect opacity="0.06" width="32" height="32" rx="10" fill="#000"/>
<path d="M10.4766 24.0234H21.5234C23.4062 24.0234 24.4844 22.9453 24.4844 21.0703V11.6719C24.4844 9.79688 23.4062 8.71094 21.5234 8.71094H10.4766C8.59375 8.71094 7.50781 9.78906 7.50781 11.6719V21.0703C7.50781 22.9453 8.59375 24.0234 10.4766 24.0234ZM10.8125 21.4922C10.2969 21.4922 10.0391 21.2734 10.0391 20.7188V14.0859C10.0391 13.5312 10.2969 13.3125 10.8125 13.3125H21.1875C21.6953 13.3125 21.9531 13.5312 21.9531 14.0859V20.7188C21.9531 21.2734 21.6953 21.4922 21.1875 21.4922H10.8125ZM12.1016 15.7891H19.9062C20.2109 15.7891 20.4453 15.5469 20.4453 15.2422C20.4453 14.9453 20.2109 14.7109 19.9062 14.7109H12.1016C11.7812 14.7109 11.5469 14.9453 11.5469 15.2422C11.5469 15.5469 11.7812 15.7891 12.1016 15.7891ZM12.1016 17.9453H19.9062C20.2109 17.9453 20.4453 17.7109 20.4453 17.4141C20.4453 17.1016 20.2109 16.8594 19.9062 16.8594H12.1016C11.7812 16.8594 11.5469 17.1016 11.5469 17.4141C11.5469 17.7109 11.7812 17.9453 12.1016 17.9453ZM12.1016 20.0938H16.9141C17.2188 20.0938 17.4531 19.8594 17.4531 19.5625C17.4531 19.2578 17.2188 19.0156 16.9141 19.0156H12.1016C11.7812 19.0156 11.5469 19.2578 11.5469 19.5625C11.5469 19.8594 11.7812 20.0938 12.1016 20.0938Z" fill="#000"/>
</svg>
