<svg width="32" height="32" viewBox="0 0 32 32" fill="none" xmlns="http://www.w3.org/2000/svg">
<rect opacity="0.06" width="32" height="32" rx="10" fill="#000"/>
<path d="M8.34375 12.9766H10.875V12.0469C10.875 11.4766 11.1406 11.2422 11.6719 11.2422H12.6016V8.71094H11.3125C9.42969 8.71094 8.34375 9.78906 8.34375 11.6719V12.9766ZM14 11.2422H18V8.71094H14V11.2422ZM21.125 12.9766H23.6562V11.6719C23.6562 9.79688 22.5703 8.71094 20.6953 8.71094H19.3984V11.2422H20.3281C20.8594 11.2422 21.125 11.4766 21.125 12.0469V12.9766ZM21.125 18.3594H23.6562V14.375H21.125V18.3594ZM8.34375 18.3594H10.875V14.375H8.34375V18.3594ZM19.3984 24.0234H20.6953C22.5703 24.0234 23.6562 22.9453 23.6562 21.0703V19.7578H21.125V20.6953C21.125 21.2578 20.8594 21.4922 20.3281 21.4922H19.3984V24.0234ZM11.3125 24.0234H12.6016V21.4922H11.6719C11.1406 21.4922 10.875 21.2578 10.875 20.6953V19.7578H8.34375V21.0703C8.34375 22.9453 9.42969 24.0234 11.3125 24.0234ZM14 24.0234H18V21.4922H14V24.0234Z" fill="#000"/>
</svg>
