<svg width="32" height="32" viewBox="0 0 32 32" fill="none" xmlns="http://www.w3.org/2000/svg">
<rect opacity="0.06" width="32" height="32" rx="10" fill="#000"/>
<path d="M16.0156 11.4844C17.5781 11.4844 18.8438 10.2109 18.8438 8.64844C18.8438 7.07812 17.5781 5.82031 16.0156 5.82031C14.4531 5.82031 13.1797 7.07812 13.1797 8.64844C13.1797 10.2188 14.4375 11.4844 16.0156 11.4844ZM16.0156 9.75C15.4062 9.75 14.9062 9.25781 14.9062 8.64844C14.9062 8.04688 15.4062 7.54688 16.0156 7.54688C16.6172 7.54688 17.1172 8.04688 17.1172 8.64844C17.1172 9.25781 16.6172 9.75 16.0156 9.75ZM23.2891 14.0703C24.0938 14.0703 24.7578 13.4141 24.7578 12.6016C24.7578 11.7969 24.0938 11.1328 23.2891 11.1328C22.4844 11.1328 21.8203 11.7969 21.8203 12.6016C21.8203 13.4141 22.4844 14.0703 23.2891 14.0703ZM8.72656 14.0703C9.53125 14.0703 10.1953 13.4141 10.1953 12.6016C10.1953 11.7969 9.53125 11.1328 8.72656 11.1328C7.92969 11.1328 7.25781 11.8047 7.25781 12.6016C7.25781 13.4141 7.92188 14.0703 8.72656 14.0703ZM16.0078 17.8516C16.8125 17.8516 17.4766 17.1875 17.4766 16.3828C17.4766 15.5547 16.8359 14.9141 16.0078 14.9141C15.2031 14.9141 14.5391 15.5781 14.5391 16.3828C14.5391 17.1875 15.2031 17.8516 16.0078 17.8516ZM9.32812 23.1641C10.8906 23.1641 12.1562 21.8906 12.1562 20.3281C12.1562 18.7656 10.8906 17.5 9.32812 17.5C7.76562 17.5 6.49219 18.7656 6.49219 20.3281C6.49219 21.8984 7.75781 23.1641 9.32812 23.1641ZM22.6797 23.1641C24.2422 23.1641 25.5078 21.8906 25.5078 20.3281C25.5078 18.7656 24.2422 17.5 22.6797 17.5C21.1172 17.5 19.8438 18.7656 19.8438 20.3281C19.8438 21.8984 21.1016 23.1641 22.6797 23.1641ZM9.32812 21.4375C8.71875 21.4375 8.21875 20.9375 8.21875 20.3281C8.21875 19.7266 8.71875 19.2266 9.32812 19.2266C9.92969 19.2266 10.4297 19.7266 10.4297 20.3281C10.4297 20.9375 9.92969 21.4375 9.32812 21.4375ZM22.6797 21.4375C22.0703 21.4375 21.5703 20.9375 21.5703 20.3281C21.5703 19.7266 22.0703 19.2266 22.6797 19.2266C23.2812 19.2266 23.7812 19.7266 23.7812 20.3281C23.7812 20.9375 23.2812 21.4375 22.6797 21.4375ZM16.0078 26.0156C16.8125 26.0156 17.4766 25.3594 17.4766 24.5547C17.4766 23.7422 16.8125 23.0859 16.0078 23.0859C15.2031 23.0859 14.5391 23.7422 14.5391 24.5547C14.5391 25.3594 15.2031 26.0156 16.0078 26.0156Z" fill="#000"/>
</svg>
