<svg width="32" height="32" viewBox="0 0 32 32" fill="none" xmlns="http://www.w3.org/2000/svg">
<rect opacity="0.06" x="6.10352e-05" width="32" height="32" rx="10" fill="#FF7502"/>
<path d="M7.50787 21.0703C7.50787 22.9453 8.59381 24.0234 10.4766 24.0234H18.6797C18.1876 23.2891 17.8751 22.4141 17.8204 21.4922H10.8126C10.2969 21.4922 10.0391 21.2734 10.0391 20.7188V14.0859C10.0391 13.5312 10.2969 13.3125 10.8126 13.3125H21.1876C21.6954 13.3125 21.9532 13.5312 21.9532 14.0859V15.7891C22.3672 15.6797 22.7969 15.625 23.2266 15.625C23.6641 15.625 24.086 15.6797 24.4844 15.7812V11.6719C24.4844 9.79688 23.4063 8.71094 21.5235 8.71094H10.4766C8.59381 8.71094 7.50787 9.78906 7.50787 11.6719V21.0703ZM12.1016 15.7891H19.9063C20.211 15.7891 20.4454 15.5469 20.4454 15.2422C20.4454 14.9453 20.211 14.7109 19.9063 14.7109H12.1016C11.7813 14.7109 11.5469 14.9453 11.5469 15.2422C11.5469 15.5469 11.7813 15.7891 12.1016 15.7891ZM12.1016 17.9453H18.7891C19.0782 17.5391 19.4063 17.1797 19.7891 16.8594H12.1016C11.7813 16.8594 11.5469 17.1016 11.5469 17.4141C11.5469 17.7109 11.7813 17.9453 12.1016 17.9453ZM23.2344 25.2812C25.5313 25.2812 27.4454 23.3594 27.4454 21.0625C27.4454 18.7656 25.5391 16.8594 23.2344 16.8594C20.9297 16.8594 19.0235 18.7656 19.0235 21.0625C19.0235 23.3672 20.9297 25.2812 23.2344 25.2812ZM20.461 21.0703C20.4532 20.6328 20.7422 20.3438 21.1876 20.3438H22.5079V19.0391C22.5079 18.6094 22.7969 18.3203 23.2344 18.3125C23.6719 18.3047 23.961 18.5938 23.961 19.0391V20.3438H25.2891C25.711 20.3438 26.0079 20.6328 26.0079 21.0703C26.0079 21.5078 25.711 21.7969 25.2891 21.7969H23.961V23.1328C23.961 23.5625 23.6719 23.8516 23.2344 23.8516C22.7969 23.8516 22.5079 23.5625 22.5079 23.1328V21.7969H21.1876C20.7579 21.7969 20.4688 21.5078 20.461 21.0703ZM12.1016 20.0938H16.9141C17.2188 20.0938 17.4532 19.8594 17.4532 19.5625C17.4532 19.2578 17.2188 19.0156 16.9141 19.0156H12.1016C11.7813 19.0156 11.5469 19.2578 11.5469 19.5625C11.5469 19.8594 11.7813 20.0938 12.1016 20.0938Z" fill="#FF7502"/>
</svg>
