<?xml version="1.0" encoding="UTF-8"?>
<svg width="1159px" height="288px" viewBox="0 0 1159 288" version="1.1" xmlns="http://www.w3.org/2000/svg" xmlns:xlink="http://www.w3.org/1999/xlink">
    <!-- Generator: Sketch 51.1 (57501) - http://www.bohemiancoding.com/sketch -->
    <title>Pooldash-Logo-Color</title>
    <desc>Created with Sketch.</desc>
    <defs>
        <linearGradient x1="100%" y1="-9.47687023%" x2="-10.470535%" y2="111.566846%" id="linearGradient-1">
            <stop stop-color="#81E7FF" offset="0%"></stop>
            <stop stop-color="#1351EC" offset="100%"></stop>
        </linearGradient>
    </defs>
    <g id="Page-1" stroke="none" stroke-width="1" fill="none" fill-rule="evenodd">
        <g transform="translate(-380.000000, -395.000000)" id="Pooldash-Logo-Color">
            <g transform="translate(380.000000, 395.000000)">
                <g id="Text" transform="translate(317.935385, 73.500000)" fill="#0D4892">
                    <path d="M108.002341,98.8014139 C108.002341,105.399658 106.988006,111.744028 104.959306,117.834715 C102.930606,123.925402 99.9826958,129.286395 96.1154864,133.917855 C92.2482771,138.549314 87.5252807,142.260771 81.9463557,145.052336 C76.3674307,147.843901 70.0278383,149.239662 62.9273883,149.239662 C57.0948758,149.239662 51.5794304,148.065954 46.3808867,145.718501 C41.182343,143.371049 37.1250038,140.167142 34.2087476,136.106684 L33.8283682,136.106684 L33.8283682,192.254923 L2.6372617,192.254923 L2.6372617,51.7891598 L32.3068508,51.7891598 L32.3068508,63.3994736 L32.8774199,63.3994736 C35.7936761,59.5927943 39.8193173,56.2619999 44.9544641,53.4069904 C50.089611,50.551981 56.1439218,49.1244977 63.117578,49.1244977 C69.9644405,49.1244977 76.177241,50.4568154 81.756166,53.1214909 C87.335091,55.7861664 92.0580874,59.4024575 95.9252968,63.9704726 C99.7925061,68.5384878 102.772115,73.836037 104.864211,79.8632792 C106.956308,85.8905214 108.002341,92.2031698 108.002341,98.8014139 Z M77.7621829,98.8014139 C77.7621829,95.7560705 77.2867135,92.7742164 76.3357603,89.8557623 C75.3848072,86.9373082 73.9900969,84.3678382 72.1515875,82.1472753 C70.3130781,79.9267124 67.9991269,78.1185669 65.2096644,76.7227845 C62.4202019,75.3270021 59.1870098,74.6291213 55.509991,74.6291213 C51.959766,74.6291213 48.7899698,75.3270021 46.0005074,76.7227845 C43.2110449,78.1185669 40.8336977,79.9584342 38.8683946,82.2424418 C36.9030915,84.5264494 35.3815893,87.1276412 34.3038424,90.0460953 C33.2260955,92.9645494 32.6872302,95.9464035 32.6872302,98.9917469 C32.6872302,102.03709 33.2260955,105.018944 34.3038424,107.937398 C35.3815893,110.855853 36.9030915,113.457044 38.8683946,115.741052 C40.8336977,118.02506 43.2110449,119.864927 46.0005074,121.260709 C48.7899698,122.656492 51.959766,123.354372 55.509991,123.354372 C59.1870098,123.354372 62.4202019,122.656492 65.2096644,121.260709 C67.9991269,119.864927 70.3130781,118.02506 72.1515875,115.741052 C73.9900969,113.457044 75.3848072,110.824131 76.3357603,107.842232 C77.2867135,104.860333 77.7621829,101.846757 77.7621829,98.8014139 Z M228.012025,98.8014139 C228.012025,106.541662 226.617315,113.552191 223.827852,119.833212 C221.03839,126.114233 217.234635,131.443504 212.416472,135.821185 C207.59831,140.198866 202.019468,143.593104 195.679781,146.004001 C189.340093,148.414898 182.556729,149.620328 175.329486,149.620328 C168.229036,149.620328 161.47737,148.414898 155.074285,146.004001 C148.671201,143.593104 143.09236,140.198866 138.337594,135.821185 C133.582828,131.443504 129.810771,126.114233 127.021308,119.833212 C124.231846,113.552191 122.837136,106.541662 122.837136,98.8014139 C122.837136,91.061166 124.231846,84.0823587 127.021308,77.8647825 C129.810771,71.6472064 133.582828,66.381379 138.337594,62.0671425 C143.09236,57.752906 148.671201,54.4538334 155.074285,52.1698259 C161.47737,49.8858183 168.229036,48.7438316 175.329486,48.7438316 C182.556729,48.7438316 189.340093,49.8858183 195.679781,52.1698259 C202.019468,54.4538334 207.59831,57.752906 212.416472,62.0671425 C217.234635,66.381379 221.03839,71.6472064 223.827852,77.8647825 C226.617315,84.0823587 228.012025,91.061166 228.012025,98.8014139 Z M197.962057,98.8014139 C197.962057,95.7560705 197.454889,92.7742164 196.440539,89.8557623 C195.426189,86.9373082 193.968083,84.3678382 192.066177,82.1472753 C190.164271,79.9267124 187.818621,78.1185669 185.029159,76.7227845 C182.239696,75.3270021 179.006504,74.6291213 175.329486,74.6291213 C171.652467,74.6291213 168.419275,75.3270021 165.629812,76.7227845 C162.84035,78.1185669 160.526399,79.9267124 158.687889,82.1472753 C156.84938,84.3678382 155.454669,86.9373082 154.503716,89.8557623 C153.552763,92.7742164 153.077294,95.7560705 153.077294,98.8014139 C153.077294,101.846757 153.552763,104.828611 154.503716,107.747065 C155.454669,110.66552 156.881078,113.298433 158.782984,115.645885 C160.68489,117.993338 163.030539,119.864927 165.820002,121.260709 C168.609464,122.656492 171.842657,123.354372 175.519675,123.354372 C179.196694,123.354372 182.429886,122.656492 185.219349,121.260709 C188.008811,119.864927 190.35446,117.993338 192.256367,115.645885 C194.158273,113.298433 195.584681,110.66552 196.535634,107.747065 C197.486587,104.828611 197.962057,101.846757 197.962057,98.8014139 Z M348.211899,98.8014139 C348.211899,106.541662 346.817189,113.552191 344.027726,119.833212 C341.238264,126.114233 337.434508,131.443504 332.616346,135.821185 C327.798183,140.198866 322.219342,143.593104 315.879655,146.004001 C309.539967,148.414898 302.756603,149.620328 295.52936,149.620328 C288.42891,149.620328 281.677244,148.414898 275.274159,146.004001 C268.871075,143.593104 263.292234,140.198866 258.537468,135.821185 C253.782702,131.443504 250.010645,126.114233 247.221182,119.833212 C244.43172,113.552191 243.03701,106.541662 243.03701,98.8014139 C243.03701,91.061166 244.43172,84.0823587 247.221182,77.8647825 C250.010645,71.6472064 253.782702,66.381379 258.537468,62.0671425 C263.292234,57.752906 268.871075,54.4538334 275.274159,52.1698259 C281.677244,49.8858183 288.42891,48.7438316 295.52936,48.7438316 C302.756603,48.7438316 309.539967,49.8858183 315.879655,52.1698259 C322.219342,54.4538334 327.798183,57.752906 332.616346,62.0671425 C337.434508,66.381379 341.238264,71.6472064 344.027726,77.8647825 C346.817189,84.0823587 348.211899,91.061166 348.211899,98.8014139 Z M318.161931,98.8014139 C318.161931,95.7560705 317.654763,92.7742164 316.640413,89.8557623 C315.626063,86.9373082 314.167957,84.3678382 312.266051,82.1472753 C310.364145,79.9267124 308.018495,78.1185669 305.229033,76.7227845 C302.43957,75.3270021 299.206378,74.6291213 295.52936,74.6291213 C291.852341,74.6291213 288.619149,75.3270021 285.829686,76.7227845 C283.040224,78.1185669 280.726272,79.9267124 278.887763,82.1472753 C277.049254,84.3678382 275.654543,86.9373082 274.70359,89.8557623 C273.752637,92.7742164 273.277168,95.7560705 273.277168,98.8014139 C273.277168,101.846757 273.752637,104.828611 274.70359,107.747065 C275.654543,110.66552 277.080952,113.298433 278.982858,115.645885 C280.884764,117.993338 283.230413,119.864927 286.019876,121.260709 C288.809338,122.656492 292.04253,123.354372 295.719549,123.354372 C299.396568,123.354372 302.62976,122.656492 305.419223,121.260709 C308.208685,119.864927 310.554334,117.993338 312.45624,115.645885 C314.358147,113.298433 315.784555,110.66552 316.735508,107.747065 C317.686461,104.828611 318.161931,101.846757 318.161931,98.8014139 Z M368.372005,146.575 L368.372005,2.68324264 L399.94349,2.68324264 L399.94349,146.575 L368.372005,146.575 Z M496.369655,146.575 L496.369655,134.203354 L495.989276,134.203354 C492.946226,139.025148 488.603605,142.736605 482.961283,145.337835 C477.318961,147.939066 471.328046,149.239662 464.988359,149.239662 C457.887909,149.239662 451.548317,147.843901 445.969392,145.052336 C440.390467,142.260771 435.66747,138.549314 431.800261,133.917855 C427.933051,129.286395 424.985141,123.925402 422.956441,117.834715 C420.927741,111.744028 419.913406,105.399658 419.913406,98.8014139 C419.913406,92.2031698 420.959439,85.8905214 423.051536,79.8632792 C425.143633,73.836037 428.123241,68.5384878 431.990451,63.9704726 C435.85766,59.4024575 440.548958,55.7861664 446.064486,53.1214909 C451.580015,50.4568154 457.761117,49.1244977 464.60798,49.1244977 C471.581636,49.1244977 477.477457,50.4568154 482.295619,53.1214909 C487.113782,55.7861664 490.854141,58.7045768 493.51681,61.8768095 L493.897189,61.8768095 L493.897189,2.68324264 L525.088296,2.68324264 L525.088296,146.575 L496.369655,146.575 Z M495.228517,98.9917469 C495.228517,95.9464035 494.689652,92.9645494 493.611905,90.0460953 C492.534158,87.1276412 491.012656,84.5264494 489.047353,82.2424418 C487.08205,79.9584342 484.704702,78.1185669 481.91524,76.7227845 C479.125777,75.3270021 475.955981,74.6291213 472.405756,74.6291213 C468.728737,74.6291213 465.495545,75.3270021 462.706083,76.7227845 C459.91662,78.1185669 457.570971,79.9267124 455.669065,82.1472753 C453.767159,84.3678382 452.34075,86.9373082 451.389797,89.8557623 C450.438844,92.7742164 449.963375,95.7560705 449.963375,98.8014139 C449.963375,101.846757 450.438844,104.860333 451.389797,107.842232 C452.34075,110.824131 453.767159,113.457044 455.669065,115.741052 C457.570971,118.02506 459.91662,119.864927 462.706083,121.260709 C465.495545,122.656492 468.728737,123.354372 472.405756,123.354372 C475.955981,123.354372 479.125777,122.656492 481.91524,121.260709 C484.704702,119.864927 487.08205,118.02506 489.047353,115.741052 C491.012656,113.457044 492.534158,110.855853 493.611905,107.937398 C494.689652,105.018944 495.228517,102.03709 495.228517,98.9917469 Z M605.728718,105.272736 L601.734735,105.272736 C598.311303,105.272736 594.856225,105.431346 591.369397,105.748569 C587.882569,106.065792 584.776169,106.668507 582.050103,107.556732 C579.324038,108.444958 577.073482,109.745554 575.29837,111.458559 C573.523257,113.171565 572.635714,115.423816 572.635714,118.215381 C572.635714,119.991831 573.047788,121.51448 573.871947,122.783373 C574.696107,124.052267 575.742139,125.067366 577.010077,125.828702 C578.278014,126.590038 579.736121,127.129309 581.384439,127.446532 C583.032758,127.763756 584.617656,127.922365 586.139181,127.922365 C592.478869,127.922365 597.328657,126.177663 600.688691,122.688207 C604.048726,119.198751 605.728718,114.472195 605.728718,108.508398 L605.728718,105.272736 Z M548.481626,64.7318047 C554.060551,59.4024537 560.558633,55.4055004 567.976067,52.7408249 C575.393502,50.0761494 582.969315,48.7438316 590.703733,48.7438316 C598.69174,48.7438316 605.443406,49.727209 610.958934,51.6939933 C616.474462,53.6607776 620.943874,56.7060754 624.367306,60.8299779 C627.790737,64.9538805 630.294876,70.1562641 631.879798,76.4372849 C633.46472,82.7183058 634.257169,90.1729409 634.257169,98.8014139 L634.257169,146.575 L605.728718,146.575 L605.728718,136.48735 L605.158149,136.48735 C602.749067,140.420919 599.103802,143.466217 594.222242,145.623335 C589.340683,147.780453 584.047123,148.858996 578.341405,148.858996 C574.537592,148.858996 570.607045,148.351447 566.549645,147.336332 C562.492245,146.321218 558.783583,144.671681 555.423549,142.387674 C552.063515,140.103666 549.305792,137.058368 547.150298,133.251689 C544.994804,129.44501 543.917074,124.750176 543.917074,119.167046 C543.917074,112.315024 545.787253,106.795421 549.527669,102.608074 C553.268085,98.4207269 558.086175,95.1850981 563.982084,92.9010905 C569.877994,90.6170829 576.439472,89.0944341 583.666715,88.3330982 C590.893959,87.5717624 597.930907,87.1911001 604.777769,87.1911001 L604.777769,85.668436 C604.777769,80.9735316 603.129475,77.5158498 599.832838,75.2952869 C596.5362,73.074724 592.478861,71.9644591 587.660699,71.9644591 C583.222917,71.9644591 578.943693,72.9161147 574.822896,74.8194543 C570.702099,76.722794 567.183625,79.0067673 564.267369,81.6714428 L548.481626,64.7318047 Z M713.185883,79.7681127 C710.650008,77.3572158 707.6704,75.3270173 704.246969,73.6774563 C700.823537,72.0278952 697.20997,71.2031271 693.406157,71.2031271 C690.489901,71.2031271 687.795574,71.7741204 685.323096,72.9161242 C682.850618,74.058128 681.614398,76.0248828 681.614398,78.8164476 C681.614398,81.4811231 682.97741,83.3844342 685.703476,84.526438 C688.429541,85.6684417 692.835558,86.9373158 698.921658,88.3330982 C702.471883,89.0944341 706.053753,90.172977 709.667374,91.5687594 C713.280996,92.9645418 716.545886,94.8044092 719.462143,97.0884168 C722.378399,99.3724244 724.724048,102.163947 726.499161,105.463069 C728.274273,108.762191 729.161816,112.695701 729.161816,117.263716 C729.161816,123.227514 727.957293,128.271288 725.548212,132.395191 C723.139131,136.519093 720.001033,139.849888 716.133823,142.387674 C712.266614,144.92546 707.923993,146.765327 703.105831,147.907331 C698.287668,149.049335 693.469578,149.620328 688.651415,149.620328 C680.916997,149.620328 673.341184,148.383176 665.923749,145.908834 C658.506315,143.434493 652.325212,139.78648 647.380256,134.964686 L664.877706,116.502384 C667.667169,119.547727 671.090549,122.085476 675.147949,124.115705 C679.205349,126.145933 683.516271,127.161033 688.080846,127.161033 C690.616721,127.161033 693.12086,126.558318 695.593339,125.352869 C698.065817,124.147421 699.302037,122.022057 699.302037,118.976713 C699.302037,116.058259 697.780535,113.901173 694.737485,112.505391 C691.694435,111.109608 686.939741,109.650403 680.473259,108.127732 C677.176622,107.366396 673.880034,106.351296 670.583396,105.082403 C667.286759,103.81351 664.338848,102.10053 661.739577,99.943412 C659.140305,97.7862937 657.016541,95.1216582 655.368223,91.9494254 C653.719904,88.7771927 652.895757,84.9705705 652.895757,80.5294447 C652.895757,74.8194258 654.100279,69.9659825 656.509361,65.9689693 C658.918442,61.971956 662.024842,58.7046053 665.828655,56.1668191 C669.632467,53.6290329 673.848296,51.7574437 678.476268,50.5519953 C683.10424,49.3465468 687.700444,48.7438316 692.265019,48.7438316 C699.365469,48.7438316 706.307323,49.8540964 713.090789,52.0746594 C719.874254,54.2952223 725.611585,57.6260167 730.302954,62.0671425 L713.185883,79.7681127 Z M809.612048,146.575 L809.612048,95.1850867 C809.612048,92.5204112 809.42186,89.982663 809.041479,87.5717662 C808.661098,85.1608693 807.932045,83.0355052 806.854298,81.1956102 C805.776551,79.3557153 804.350143,77.8965101 802.57503,76.817951 C800.799918,75.7393918 798.517664,75.2001204 795.728202,75.2001204 C790.276071,75.2001204 786.09194,77.1351533 783.175683,81.0052772 C780.259427,84.8754012 778.801321,89.6654007 778.801321,95.3754197 L778.801321,146.575 L747.610214,146.575 L747.610214,2.68324264 L778.801321,2.68324264 L778.801321,63.7801396 L779.1817,63.7801396 C781.337194,59.9734603 784.760574,56.5792222 789.451943,53.5973235 C794.143311,50.6154247 799.785549,49.1244977 806.378824,49.1244977 C812.845305,49.1244977 818.265656,50.2664843 822.640041,52.5504919 C827.014425,54.8344995 830.564597,57.7846316 833.290662,61.400977 C836.016728,65.0173223 837.982002,69.1728848 839.186542,73.8677893 C840.391083,78.5626937 840.993344,83.2575277 840.993344,87.9524322 L840.993344,146.575 L809.612048,146.575 Z" id="pooldash"></path>
                    <rect id="Rectangle" x="418.356923" y="168.025" width="420.76027" height="21.45"></rect>
                </g>
                <g id="Icon">
                    <path d="M19,0 L237,0 L237,33.9069767 C221.837029,32.8533488 210.07259,34.9116279 197.936416,37.6744186 C187.18511,40.1169767 177.744324,34.3954884 170.213873,32.6511628 C157.108671,29.6133488 146.170867,35.6814419 137.450867,37.6744186 C120.290613,41.5963256 110.543618,28.3600465 92.0867052,32.6511628 C81.3643815,35.1439535 72.4629249,37.2888837 59.3236994,36.4186047 L59.3236994,50.2325581 L46.7225434,48.9767442 L46.7225434,66.5581395 C60.9202659,75.2923256 79.2158844,58.4593953 95.867052,62.7906977 C103.416405,64.7547907 113.949711,70.7726512 126.109827,67.8139535 C133.986809,65.8975814 144.390324,59.9111163 156.352601,62.7906977 C164.480347,64.7472558 175.430751,70.8366977 187.855491,67.8139535 C195.732474,65.8975814 206.135988,59.9098605 218.098266,62.7906977 C223.845653,64.172093 230.117249,66.9637674 237,67.8139535 L237,113.023256 C221.837029,111.969628 210.07259,114.027907 197.936416,116.790698 C187.18511,119.233256 177.744324,113.513023 170.213873,111.767442 C157.108671,108.729628 146.170867,114.797721 137.450867,116.790698 C120.290613,120.712605 110.543618,107.476326 92.0867052,111.767442 C81.3643815,114.260233 72.4629249,116.405163 59.3236994,115.534884 L59.3236994,129.348837 L46.7225434,128.093023 L46.7225434,145.674419 C60.9202659,154.408605 79.2158844,137.575674 95.867052,141.906977 C103.416405,143.87107 113.949711,149.88893 126.109827,146.930233 C133.986809,145.01386 144.390324,139.027395 156.352601,141.906977 C164.480347,143.863535 175.430751,149.952977 187.855491,146.930233 C195.732474,145.01386 206.135988,139.02614 218.098266,141.906977 C223.845653,143.288372 230.117249,146.080047 237,146.930233 L237,193.395349 C221.837029,192.341721 210.07259,194.4 197.936416,197.162791 C187.18511,199.605349 177.744324,193.885116 170.213873,192.139535 C157.108671,189.101721 146.170867,195.169814 137.450867,197.162791 C120.290613,201.084698 110.543618,187.848419 92.0867052,192.139535 C81.3643815,194.632326 72.4629249,196.777256 59.3236994,195.906977 L59.3236994,209.72093 L46.7225434,208.465116 L46.7225434,226.046512 C60.9202659,234.780698 79.2158844,217.947767 95.867052,222.27907 C103.416405,224.243163 113.949711,230.261023 126.109827,227.302326 C133.986809,225.385953 144.390324,219.399488 156.352601,222.27907 C164.480347,224.235628 175.430751,230.32507 187.855491,227.302326 C195.732474,225.385953 206.135988,219.398233 218.098266,222.27907 C223.845653,223.660465 230.117249,226.45214 237,227.302326 L237,270 L19,270 L19,0 Z" id="Shape" fill="#0D4892"></path>
                    <path d="M0,18 L18.880597,18 L18.880597,269.162791 L217.756219,269.162791 L217.756219,288 L0,288 L0,18 Z M253,35.5813953 L253,54.4186047 C241.622552,54.3545581 236.568846,51.3330698 227.825871,49.3953488 C217.214975,47.0432093 208.441791,52.6981395 201.393035,54.4186047 C188.232,57.6322326 176.218905,51.4046512 167.40796,49.3953488 C156.783219,46.9666047 146.971602,52.6604651 139.716418,54.4186047 C126.589368,57.5995814 114.674453,51.4310233 105.731343,49.3953488 C90.0629652,45.8288372 76.9648657,56.5534884 59.159204,53.1627907 L59.159204,35.5813953 C63.0749836,36.1941181 69.4370831,36.1941181 78.2455027,35.5813953 C88.682076,34.8554165 96.3476866,28.5990698 109.507463,31.8139535 C116.651881,33.5595349 126.47105,39.289814 137.199005,36.8372093 C145.909254,34.8454884 156.834826,28.7748837 169.925373,31.8139535 C190.316418,36.5471163 193.556328,36.7706512 213.9801,31.8139535 C228.937308,28.1846512 239.578413,35.4369767 253,35.5813953 Z M253,114.697674 L253,133.534884 C241.622552,133.470837 236.568846,130.449349 227.825871,128.511628 C217.214975,126.159488 208.441791,131.814419 201.393035,133.534884 C188.232,136.748512 176.218905,130.52093 167.40796,128.511628 C156.783219,126.081628 146.971602,131.776744 139.716418,133.534884 C126.589368,136.71586 114.674453,130.547302 105.731343,128.511628 C90.0629652,124.945116 76.9648657,135.669767 59.159204,132.27907 L59.159204,114.697674 C67.6990484,115.261535 74.7239245,115.058718 80.2338323,114.089225 C88.7507093,112.590641 96.3476866,107.715349 109.507463,110.930233 C116.651881,112.675814 126.47105,118.406093 137.199005,115.953488 C145.909254,113.961767 156.834826,107.891163 169.925373,110.930233 C190.316418,115.663395 193.556328,115.88693 213.9801,110.930233 C228.937308,107.30093 239.578413,114.553256 253,114.697674 Z M253,195.069767 L253,213.906977 C241.622552,213.84293 236.568846,210.821442 227.825871,208.883721 C217.214975,206.531581 208.441791,212.186512 201.393035,213.906977 C188.232,217.120605 176.218905,210.893023 167.40796,208.883721 C156.783219,206.453721 146.971602,212.148837 139.716418,213.906977 C126.589368,217.087953 114.674453,210.919395 105.731343,208.883721 C90.0629652,205.317209 76.9648657,216.04186 59.159204,212.651163 L59.159204,195.069767 C68.0178627,195.98377 74.0011297,195.98377 77.1090052,195.069767 C84.2862794,192.958985 96.3476866,188.087442 109.507463,191.302326 C116.651881,193.047907 126.47105,198.778186 137.199005,196.325581 C145.909254,194.33386 156.834826,188.263256 169.925373,191.302326 C190.316418,196.035488 193.556328,196.259023 213.9801,191.302326 C228.937308,187.673023 239.578413,194.925349 253,195.069767 Z" id="Shape" fill="url(#linearGradient-1)" fill-rule="nonzero"></path>
                </g>
            </g>
        </g>
    </g>
</svg>